<?xml version="1.0" standalone="no"?><!DOCTYPE svg PUBLIC "-//W3C//DTD SVG 1.1//EN" "http://www.w3.org/Graphics/SVG/1.1/DTD/svg11.dtd"><svg t="1532940362699" class="icon" style="" viewBox="0 0 1024 1024" version="1.1" xmlns="http://www.w3.org/2000/svg" p-id="3846" xmlns:xlink="http://www.w3.org/1999/xlink" width="200" height="200"><defs><style type="text/css"></style></defs><path d="M749.220285 959.524546 274.789948 959.524546c-51.92051 0-99.466386-40.037878-108.315938-91.192955l-68.476581-414.905638c-4.470825-26.03905 2.27174-52.176336 18.532075-71.474868 16.235776-19.296485 40.838104-30.356378 67.419506-30.356378L840.097038 351.594707c26.643823 0 51.251268 11.087523 67.481927 30.385031 16.229636 19.301602 22.939455 45.438888 18.370393 71.703065l-68.409043 414.423661C848.623225 919.486668 801.081443 959.524546 749.220285 959.524546L749.220285 959.524546zM183.947987 415.533948c-7.825222 0-14.44192 2.681062-18.561751 7.607258-4.1536 4.919033-5.689582 11.916401-4.378727 19.681248l68.506257 414.901545c3.452635 20.067035 24.636097 37.897122 45.275159 37.897122l474.430336 0c20.643156 0 41.827641-17.863856 45.342698-38.151925l68.410066-414.427754c1.375324-7.984858-0.160659-14.951527-4.28049-19.871583-4.154623-4.920056-10.770298-7.635911-18.59552-7.635911L183.947987 415.533948 183.947987 415.533948zM318.406329 607.378278c-35.274388 0-63.937195-28.66383-63.937195-63.910589 0-35.239596 28.662807-63.902402 63.937195-63.902402 35.210943 0 63.874773 28.66383 63.874773 63.902402C382.281101 578.680678 353.617271 607.378278 318.406329 607.378278L318.406329 607.378278zM318.406329 543.467689c0 0-0.063445 0-0.097214 0.033769l0.063445 31.921014L318.406329 543.467689 318.406329 543.467689zM703.688275 607.378278c-35.240619 0-63.904449-28.66383-63.904449-63.910589 0-35.239596 28.664853-63.902402 63.904449-63.902402 35.244712 0 63.907519 28.66383 63.907519 63.902402C767.595794 578.680678 738.932987 607.378278 703.688275 607.378278L703.688275 607.378278zM703.722044 543.467689l-0.064468 0 0.029676 31.955806L703.722044 543.467689 703.722044 543.467689zM735.671711 320.474942c-17.669428 0-31.949666-14.314007-31.949666-31.954783 0-91.444689-102.091166-159.762657-193.408965-159.762657-93.396133 0-190.019775 59.624982-190.019775 159.38301 0 17.633612-14.31503 31.949666-31.954783 31.949666-17.639752 0-31.954783-14.31503-31.954783-31.949666 0-139.763161 129.124869-223.286436 253.957992-223.286436 121.708969 0 257.317507 91.865267 257.317507 223.666082C767.626493 306.160935 753.345232 320.474942 735.671711 320.474942L735.671711 320.474942zM735.671711 320.474942" p-id="3847"></path></svg>