<?xml version="1.0" standalone="no"?><!DOCTYPE svg PUBLIC "-//W3C//DTD SVG 1.1//EN" "http://www.w3.org/Graphics/SVG/1.1/DTD/svg11.dtd"><svg t="1532940352457" class="icon" style="" viewBox="0 0 1113 1024" version="1.1" xmlns="http://www.w3.org/2000/svg" p-id="3620" xmlns:xlink="http://www.w3.org/1999/xlink" width="217.3828125" height="200"><defs><style type="text/css"></style></defs><path d="M958.416 149.959c-56.745-56.739-132.288-87.959-212.737-87.959s-156.028 31.252-212.768 87.997l-209.991 209.957c-13.549 13.552-13.549 35.642 0 49.195 6.591 6.554 15.301 10.188 24.598 10.188s18.045-3.601 24.598-10.188l209.957-209.955c43.605-43.605 101.722-67.655 163.577-67.655s119.933 24.017 163.539 67.618c90.189 90.195 90.189 236.92 0 327.146l-351.678 351.713-351.744-351.676c-90.195-90.19-90.195-236.959 0-327.115 43.532-43.532 101.303-67.513 162.681-67.513 11.083 0 22.333 0.791 33.414 2.368 1.65 0.24 3.293 0.345 4.943 0.345 17.185 0 31.973-12.868 34.407-29.918 2.675-19.006-10.6-36.637-29.571-39.317-13.998-2.020-28.236-3.016-42.402-3.016-31.806 0-63.057 4.868-92.937 14.511-45.458 14.684-85.766 39.35-119.766 73.313-117.296 117.295-117.296 308.212 0.036 425.502l376.307 376.314c6.553 6.548 15.301 10.187 24.598 10.187 9.298 0 18.012-3.601 24.598-10.187l376.313-376.314c117.358-117.327 117.327-308.209 0.033-425.541v0zM958.416 149.959z" p-id="3621"></path></svg>