<?xml version="1.0" standalone="no"?><!DOCTYPE svg PUBLIC "-//W3C//DTD SVG 1.1//EN" "http://www.w3.org/Graphics/SVG/1.1/DTD/svg11.dtd"><svg t="1532940330907" class="icon" style="" viewBox="0 0 1024 1024" version="1.1" xmlns="http://www.w3.org/2000/svg" p-id="3153" xmlns:xlink="http://www.w3.org/1999/xlink" width="200" height="200"><defs><style type="text/css"></style></defs><path d="M722.446501 276.911774 305.293683 276.911774c-6.230911 0-11.273764 5.042853-11.273764 11.274788s5.042853 11.274788 11.273764 11.274788l417.152818 0c6.231935 0 11.274788-5.042853 11.274788-11.274788S728.678436 276.911774 722.446501 276.911774z" p-id="3154"></path><path d="M722.446501 463.226157 305.293683 463.226157c-6.230911 0-11.273764 5.042853-11.273764 11.273764s5.042853 11.273764 11.273764 11.273764l417.152818 0c6.231935 0 11.274788-5.042853 11.274788-11.273764S728.678436 463.226157 722.446501 463.226157z" p-id="3155"></path><path d="M583.410911 649.538493 305.293683 649.538493c-6.230911 0-11.273764 5.043876-11.273764 11.274788s5.042853 11.273764 11.273764 11.273764L583.410911 672.087045c6.230911 0 11.274788-5.042853 11.274788-11.273764S589.641823 649.538493 583.410911 649.538493z" p-id="3156"></path><path d="M800.178887 62.389956 223.841579 62.389956c-49.92097 0-90.52576 40.605813-90.52576 90.524736l0 718.169593c0 49.919946 40.60479 90.52576 90.52576 90.52576l395.153782 0c0.36532 0 0.729617-0.021489 1.092891-0.056282 0.130983-0.01228 0.257873-0.034792 0.387833-0.052189 0.230244-0.029676 0.459464-0.061398 0.688685-0.105401 0.145309-0.027629 0.286526-0.064468 0.429789-0.099261 0.207731-0.050142 0.415462-0.099261 0.62217-0.160659 0.145309-0.041956 0.284479-0.093121 0.426719-0.141216 0.197498-0.067538 0.394996-0.137123 0.589424-0.215918 0.146333-0.059352 0.286526-0.12382 0.430812-0.189312 0.178055-0.081864 0.354064-0.163729 0.528026-0.254803 0.162706-0.083911 0.320295-0.176009 0.477884-0.268106 0.13917-0.080841 0.277316-0.162706 0.411369-0.248663 0.200568-0.12996 0.394996-0.268106 0.586354-0.408299 0.076748-0.058328 0.155543-0.113587 0.232291-0.173962 0.260943-0.201591 0.509606-0.414439 0.751107-0.639566 0.00307-0.001023 0.005117-0.00307 0.007163-0.005117l0.020466-0.01842c0.106424-0.101307 0.220011-0.195451 0.323365-0.299829l260.068154-241.243413c0.004093-0.004093 0.007163-0.00921 0.011256-0.01228 0.255827-0.237407 0.49835-0.48607 0.730641-0.74599 0.033769-0.036839 0.067538-0.072655 0.101307-0.109494 0.193405-0.224104 0.376577-0.455371 0.553609-0.694825 0.055259-0.073678 0.112564-0.146333 0.166799-0.222057 0.141216-0.201591 0.273223-0.411369 0.402159-0.62217 0.068562-0.112564 0.141216-0.225127 0.204661-0.338714 0.102331-0.180102 0.192382-0.367367 0.283456-0.554632 0.072655-0.149403 0.149403-0.295735 0.214894-0.448208 0.071631-0.162706 0.13303-0.329505 0.195451-0.496304 0.068562-0.181125 0.140193-0.360204 0.198521-0.543376 0.048095-0.146333 0.085958-0.295735 0.12689-0.444115 0.060375-0.211824 0.11768-0.424672 0.164752-0.639566 0.026606-0.12689 0.047072-0.255827 0.069585-0.38374 0.044002-0.24457 0.084934-0.48914 0.11154-0.734734 0.013303-0.110517 0.019443-0.222057 0.027629-0.332575 0.022513-0.270153 0.037862-0.538259 0.040932-0.809435 0-0.042979 0.007163-0.083911 0.007163-0.125867L890.68111 152.914692C890.682134 102.995769 850.07632 62.389956 800.178887 62.389956zM630.270149 924.511101 630.270149 788.023544c0-37.477566 30.498618-67.977207 67.977207-67.977207l152.441924 0L630.270149 924.511101zM868.132558 697.498808 698.247356 697.498808c-49.92097 0-90.526783 40.606837-90.526783 90.52576l0 151.037948L223.841579 939.062516c-37.47859 0-67.977207-30.498618-67.977207-67.977207L155.864372 152.914692c0-37.477566 30.498618-67.976184 67.977207-67.976184l576.337307 0c37.47859 0 67.953671 30.498618 67.953671 67.976184L868.132558 697.498808z" p-id="3157"></path></svg>