<?xml version="1.0" standalone="no"?><!DOCTYPE svg PUBLIC "-//W3C//DTD SVG 1.1//EN" "http://www.w3.org/Graphics/SVG/1.1/DTD/svg11.dtd"><svg t="1533349865492" class="icon" style="" viewBox="0 0 1024 1024" version="1.1" xmlns="http://www.w3.org/2000/svg" p-id="5881" xmlns:xlink="http://www.w3.org/1999/xlink" width="200" height="200"><defs><style type="text/css"></style></defs><path d="M529.075399 63.978127c57.935504 0 114.131387 11.343349 167.027108 33.716916 51.101865 21.614274 97.002264 52.5611 136.425136 91.980901 39.423895 39.420825 70.374814 85.319178 91.993181 136.420019 22.376637 52.896744 33.723056 109.09672 33.723056 167.040411 0 57.935504-11.346419 114.131387-33.723056 167.025061-21.618367 51.096748-52.569286 96.992031-91.993181 136.411833-39.422871 39.418778-85.324294 70.364581-136.425136 91.978854-52.893674 22.370497-109.089557 33.714869-167.027108 33.714869s-114.130364-11.343349-167.019944-33.714869c-51.096748-21.61325-96.989985-52.55803-136.40774-91.977831-39.416731-39.418778-70.361511-85.313038-91.974761-136.411833-22.37152-52.892651-33.714869-109.088534-33.714869-167.026084 0-57.944713 11.343349-114.145713 33.715893-167.041434 21.61325-51.101865 52.557006-97.000218 91.974761-136.420019 39.416731-39.418778 85.310991-70.366627 136.406716-91.979878C414.945035 75.321476 471.138872 63.978127 529.075399 63.978127M529.075399 43.512003c-248.28683 0-449.583438 201.302749-449.583438 449.624371 0 248.295016 201.296609 449.594695 449.583438 449.594695 248.281713 0 449.63665-201.301725 449.63665-449.594695C978.711026 244.814752 777.357112 43.512003 529.075399 43.512003L529.075399 43.512003z" p-id="5882"></path><path d="M218.102878 335.454098l97.567129 0 0 280.592606c0 23.065322-10.725272 34.601052-32.175817 34.601052-11.762905 0-22.720468-0.345877-32.868595-1.038656-0.923022-6.92062-2.306532-15.110139-4.151553-24.565489 11.763928 1.846044 21.913079 2.768043 30.446429 2.768043 9.457396 0 14.186094-4.728698 14.186094-14.185071l0-79.57843-48.437176 0c0.691755 53.05331-8.880251 93.53121-28.717042 121.44291-5.073552-6.688329-11.418051-13.149485-19.029402-19.376303 15.45397-23.759123 23.180955-57.434084 23.180955-101.028974L218.102878 335.454098 218.102878 335.454098zM291.106566 357.945345l-48.437176 0 0 66.428945 48.437176 0L291.106566 357.945345zM242.66939 512.599657l48.437176 0L291.106566 445.823811l-48.437176 0L242.66939 512.599657 242.66939 512.599657zM344.386026 336.839655l170.916694 0c-1.153266 18.682501-2.076288 33.444716-2.768043 44.284599-1.846044 35.752272-20.063965 53.280484-54.66604 52.590775-9.455349-0.232291-24.332175-0.691755-44.630477-1.385557-1.384533-8.995885-2.882654-18.105357-4.498454-27.331485 17.068747 2.073218 32.406061 3.345188 46.016033 3.806699 19.836791 0.691755 30.560016-8.765641 32.175817-28.373211 0.690732-5.994528 1.26583-12.570293 1.727341-19.720134L370.683972 360.711342l0 99.643418L516.688277 460.354759l0 20.411889c-9.229199 40.481993-26.064632 75.711356-50.632167 105.698321 19.953448 18.912745 44.6315 33.619702 74.156954 44.11166-7.841595 9.228175-14.528901 17.530258-20.064988 24.911366-28.372188-13.264095-52.359508-29.755698-72.079642-49.477878-17.644869 17.415648-38.403658 32.756031-62.163805 46.016033-4.381797-7.611352-9.109472-15.22168-14.184047-22.833031 23.065322-11.764951 43.016723-25.834388 59.738569-42.211381-22.491247-28.833699-37.366026-63.547315-44.515866-104.142895l-16.260335 0 0 171.953304-26.296923 0L344.386026 336.839655 344.386026 336.839655zM489.354745 482.846006l-78.653361 0c7.150864 33.214473 19.836791 61.46898 38.174438 84.764546C467.905224 543.507598 481.397516 515.25309 489.354745 482.846006z" p-id="5883"></path><path d="M647.815757 311.928289l25.947975 11.069103c-5.188162 8.535397-10.607592 16.838503-16.262382 24.912389l187.178053 0 0 23.178909c-21.452591 26.065655-50.745754 48.841382-87.995123 68.332295 38.749536 14.069437 84.880179 22.776749 138.508587 26.119891-7.380084 10.381441-13.837146 20.067035-19.376303 29.060873-60.086493-7.957229-110.4833-21.393239-151.193491-40.307008-45.783743 19.490913-101.143585 34.885532-166.07134 46.188972-3.923356-7.150864-8.651031-15.22168-14.186094-24.218588 57.778938-8.880251 107.946524-21.449521 150.502759-37.712927-26.293853-16.030092-47.28391-35.001165-63.082734-56.914244-17.877159 21.218254-37.712927 40.884153-59.393715 58.989509-6.92062-7.381108-13.264095-13.608949-19.030425-18.683525C595.804173 388.276141 627.288235 351.600847 647.815757 311.928289zM575.15897 514.674922l100.683097 0c1.613754-11.18883 3.001357-23.642466 4.1536-37.367049l28.025287 0c-1.499144 13.722536-2.99931 26.178219-4.613064 37.367049l139.545196 0c-2.305509 41.288358-4.497431 70.235644-6.573719 86.840834-3.689019 32.520671-23.064298 48.898687-58.125839 49.130977-13.607926 0.231267-34.021861-0.232291-61.240783-1.385557-1.385557-8.53335-3.112897-18.10331-5.188162-28.716019 26.524097 2.305509 48.438199 3.575432 65.736167 3.804652 19.6045-0.460488 30.448476-10.378371 32.521694-29.753651 2.074242-17.297968 3.576455-35.752272 4.498454-55.357795L699.253266 539.238364c-12.224416 55.473429-55.241139 95.721085-128.937604 120.749108-5.305843-7.612375-10.956539-15.33936-16.951067-23.180955 66.196655-21.451568 105.411795-53.974285 117.633141-97.568153L575.159994 539.238364 575.15897 514.674922 575.15897 514.674922zM807.661302 370.745882 653.23621 370.745882c18.568914 22.258956 42.442648 40.59558 71.617108 55.011918C758.18547 410.188196 785.748223 391.850549 807.661302 370.745882z" p-id="5884"></path></svg>