<?xml version="1.0" standalone="no"?><!DOCTYPE svg PUBLIC "-//W3C//DTD SVG 1.1//EN" "http://www.w3.org/Graphics/SVG/1.1/DTD/svg11.dtd"><svg t="1532942121190" class="icon" style="" viewBox="0 0 1024 1024" version="1.1" xmlns="http://www.w3.org/2000/svg" p-id="5814" xmlns:xlink="http://www.w3.org/1999/xlink" width="200" height="200"><defs><style type="text/css"></style></defs><path d="M901.89824 124.96896H122.88c-67.75808 0-122.88 55.12192-122.88 122.88v552.97024c0 67.75808 55.12192 122.88 122.88 122.88h779.01824c67.75808 0 122.88-55.12192 122.88-122.88V247.84896c0-67.75808-55.12192-122.88-122.88-122.88z m-779.01824 40.96h779.01824c45.16864 0 81.92 36.75136 81.92 81.92v345.67168a416.9216 416.9216 0 0 0-111.53408-15.17568c-131.80928 0-253.67552 61.27616-332.3904 165.30432-73.728-121.88672-207.872-202.4448-357.40672-202.4448-48.8448 0-96.29696 8.40704-141.52704 24.76032V247.84896c0-45.16864 36.75136-81.92 81.92-81.92z m-81.92 634.89024V609.82272a373.2992 373.2992 0 0 1 141.52704-27.648c178.76992 0 333.1072 127.66208 368.46592 300.57472H122.88c-45.16864-0.01024-81.92-36.7616-81.92-81.93024z m860.93824 81.92H592.73216a411.2384 411.2384 0 0 0-31.41632-98.67264c70.2976-103.30112 185.64096-164.7616 310.96832-164.7616 38.11328 0 75.55072 5.6832 111.53408 16.83456v164.67968c0 45.16864-36.75136 81.92-81.92 81.92z" fill="" p-id="5815"></path><path d="M685.84448 483.47136c58.3168 0 105.76896-47.45216 105.76896-105.7792 0-58.3168-47.45216-105.76896-105.76896-105.76896-58.32704 0-105.7792 47.45216-105.7792 105.76896-0.01024 58.33728 47.44192 105.7792 105.7792 105.7792z m0-170.57792a64.88064 64.88064 0 0 1 64.80896 64.80896c0 35.7376-29.07136 64.8192-64.80896 64.8192s-64.8192-29.07136-64.8192-64.8192a64.88064 64.88064 0 0 1 64.8192-64.80896z" fill="" p-id="5816"></path></svg>