<?xml version="1.0" standalone="no"?><!DOCTYPE svg PUBLIC "-//W3C//DTD SVG 1.1//EN" "http://www.w3.org/Graphics/SVG/1.1/DTD/svg11.dtd"><svg t="1532940313173" class="icon" style="" viewBox="0 0 1024 1024" version="1.1" xmlns="http://www.w3.org/2000/svg" p-id="2925" xmlns:xlink="http://www.w3.org/1999/xlink" width="200" height="200"><defs><style type="text/css"></style></defs><path d="M167.807 103.902z m230.69 212.255c0-75.537-63.627-136.826-142.21-136.826-78.475 0.055-142.156 61.289-142.156 136.826 0 36.763 15.118 70.154 39.645 94.789-6.688 26.974-10.169 55.035-10.169 83.966 0 130.084 71.187 244.232 178.103 308.188l28.442-112.355c-58.081-46.877-95.061-117.141-95.061-195.777 0-14.302 1.197-28.333 3.589-41.929 77.495-1.306 139.817-62.052 139.817-136.882z m121.98-76.407c49.162 0 95.115 12.834 134.652 35.294-6.254 15.39-9.571 32.085-9.571 49.542 0 75.592 63.628 136.827 142.102 136.827s142.21-61.29 142.21-136.827-63.736-136.827-142.21-136.827c-18.381 0-36.001 3.372-52.045 9.463-61.071-40.896-135.086-64.878-215.138-64.878-54.164 0-105.665 11.04-152.216 30.835l64.987 90.656c27.299-9.137 56.666-14.085 87.229-14.085zM785.43 506.387c-4.242 92.994-60.311 173.1-141.068 214.268-23.494-44.32-71.405-74.666-126.657-74.666-78.583 0-142.211 61.289-142.211 136.826s63.628 136.881 142.211 136.881c58.896 0 109.581-34.533 131.008-83.695C793.696 785.48 897.24 651.808 897.24 494.968c0-8.049-0.325-15.988-0.87-23.874l-110.94 35.293zM167.807 103.902z m230.69 212.255c0-75.537-63.627-136.826-142.21-136.826-78.475 0.055-142.156 61.289-142.156 136.826 0 36.763 15.118 70.154 39.645 94.789-6.688 26.974-10.169 55.035-10.169 83.966 0 130.084 71.187 244.232 178.103 308.188l28.442-112.355c-58.081-46.877-95.061-117.141-95.061-195.777 0-14.302 1.197-28.333 3.589-41.929 77.495-1.306 139.817-62.052 139.817-136.882z m121.98-76.407c49.162 0 95.115 12.834 134.652 35.294-6.254 15.39-9.571 32.085-9.571 49.542 0 75.592 63.628 136.827 142.102 136.827s142.21-61.29 142.21-136.827-63.736-136.827-142.21-136.827c-18.381 0-36.001 3.372-52.045 9.463-61.071-40.896-135.086-64.878-215.138-64.878-54.164 0-105.665 11.04-152.216 30.835l64.987 90.656c27.299-9.137 56.666-14.085 87.229-14.085zM785.43 506.387c-4.242 92.994-60.311 173.1-141.068 214.268-23.494-44.32-71.405-74.666-126.657-74.666-78.583 0-142.211 61.289-142.211 136.826s63.628 136.881 142.211 136.881c58.896 0 109.581-34.533 131.008-83.695C793.696 785.48 897.24 651.808 897.24 494.968c0-8.049-0.325-15.988-0.87-23.874l-110.94 35.293zM167.807 103.902z m230.69 212.255c0-75.537-63.627-136.826-142.21-136.826-78.475 0.055-142.156 61.289-142.156 136.826 0 36.763 15.118 70.154 39.645 94.789-6.688 26.974-10.169 55.035-10.169 83.966 0 130.084 71.187 244.232 178.103 308.188l28.442-112.355c-58.081-46.877-95.061-117.141-95.061-195.777 0-14.302 1.197-28.333 3.589-41.929 77.495-1.306 139.817-62.052 139.817-136.882z m121.98-76.407c49.162 0 95.115 12.834 134.652 35.294-6.254 15.39-9.571 32.085-9.571 49.542 0 75.592 63.628 136.827 142.102 136.827s142.21-61.29 142.21-136.827-63.736-136.827-142.21-136.827c-18.381 0-36.001 3.372-52.045 9.463-61.071-40.896-135.086-64.878-215.138-64.878-54.164 0-105.665 11.04-152.216 30.835l64.987 90.656c27.299-9.137 56.666-14.085 87.229-14.085zM785.43 506.387c-4.242 92.994-60.311 173.1-141.068 214.268-23.494-44.32-71.405-74.666-126.657-74.666-78.583 0-142.211 61.289-142.211 136.826s63.628 136.881 142.211 136.881c58.896 0 109.581-34.533 131.008-83.695C793.696 785.48 897.24 651.808 897.24 494.968c0-8.049-0.325-15.988-0.87-23.874l-110.94 35.293z" p-id="2926"></path></svg>