<?xml version="1.0" standalone="no"?><!DOCTYPE svg PUBLIC "-//W3C//DTD SVG 1.1//EN" "http://www.w3.org/Graphics/SVG/1.1/DTD/svg11.dtd"><svg t="1532940347577" class="icon" style="" viewBox="0 0 1024 1024" version="1.1" xmlns="http://www.w3.org/2000/svg" p-id="3507" xmlns:xlink="http://www.w3.org/1999/xlink" width="200" height="200"><defs><style type="text/css"></style></defs><path d="M681.978 672.378 333.157 672.378l-0.405-9.425c-0.177-4.255-0.26-8.565-0.26-12.835 0-131.84 78.42-333.854 175.065-333.854 96.642 0 175.087 202.015 175.087 333.854 0 4.27-0.095 8.58-0.275 12.83L681.978 672.378zM509.101 312.712c-51.41 0-93.247-40.975-93.247-91.345 0-50.357 41.837-91.327 93.247-91.327 51.417 0 93.267 40.97 93.267 91.327C602.368 271.737 560.519 312.712 509.101 312.712zM921.118 672.378 716.208 672.378l0.43-10.255c0.19-4.615 0.285-9.285 0.285-13.925 0-68.96-48.465-227.147-78.155-270.599l-4.53-6.617 5.55-5.772c30.835-32.022 67.8-48.945 106.905-48.945 96.645 0 175.075 202.015 175.075 333.854 0 4.27-0.08 8.58-0.26 12.83L921.118 672.378zM748.238 312.712c-51.41 0-93.25-40.975-93.25-91.345 0-50.357 41.84-91.327 93.25-91.327 51.43 0 93.27 40.97 93.27 91.327C841.508 271.737 799.668 312.712 748.238 312.712zM305.172 672.378 100.27 672.378l-0.382-9.43c-0.19-4.25-0.272-8.56-0.272-12.83 0-131.84 78.432-333.854 175.077-333.854 39.102 0 76.07 16.92 106.892 48.945l5.572 5.772-4.537 6.617c-29.697 43.452-78.16 201.639-78.16 270.599 0 4.64 0.095 9.31 0.285 13.925L305.172 672.378zM273.147 312.712c-51.42 0-93.27-40.975-93.27-91.345 0-50.357 41.85-91.327 93.27-91.327s93.245 40.97 93.245 91.327C366.392 271.737 324.569 312.712 273.147 312.712zM99.615 702.968l823.068 0 0 190.99L99.615 893.958 99.615 702.968z" p-id="3508"></path></svg>